<svg width="33" height="32" viewBox="0 0 33 32" fill="none" xmlns="http://www.w3.org/2000/svg">
<path d="M19.7398 25.0935C19.4865 25.0935 19.2332 25.0002 19.0332 24.8002C18.6465 24.4135 18.6465 23.7735 19.0332 23.3868L26.4198 16.0002L19.0332 8.61349C18.6465 8.22682 18.6465 7.58682 19.0332 7.20016C19.4198 6.81349 20.0598 6.81349 20.4465 7.20016L28.5398 15.2935C28.9265 15.6802 28.9265 16.3202 28.5398 16.7068L20.4465 24.8002C20.2465 25.0002 19.9932 25.0935 19.7398 25.0935Z" fill="white"/>
<path d="M27.6065 17H5.1665C4.61984 17 4.1665 16.5467 4.1665 16C4.1665 15.4533 4.61984 15 5.1665 15H27.6065C28.1532 15 28.6065 15.4533 28.6065 16C28.6065 16.5467 28.1532 17 27.6065 17Z" fill="white"/>
</svg>
