<svg width="50" height="28" viewBox="0 0 50 28" fill="none" xmlns="http://www.w3.org/2000/svg">
<g filter="url(#filter0_d_609_20562)">
<rect x="46" width="20" height="42" rx="10" transform="rotate(90 46 0)" fill="white"/>
</g>
<path fill-rule="evenodd" clip-rule="evenodd" d="M36 18C40.4183 18 44 14.4183 44 10C44 5.58172 40.4183 2 36 2C31.5817 2 28 5.58172 28 10C28 14.4183 31.5817 18 36 18ZM36 13C37.6569 13 39 11.6569 39 10C39 8.34315 37.6569 7 36 7C34.3431 7 33 8.34315 33 10C33 11.6569 34.3431 13 36 13Z" fill="#034159"/>
<path d="M10.6719 12H9.46875V6.32422H10.6719V12ZM14.2344 7.61719L15.2617 10.0195C15.3919 10.3242 15.5299 10.5299 15.6758 10.6367C15.8242 10.7435 16.0234 10.7969 16.2734 10.7969H16.3164V12H16.2578C15.9271 12 15.6276 11.9427 15.3594 11.8281C15.0911 11.7109 14.8698 11.5143 14.6953 11.2383C14.5312 11.5117 14.2982 11.7135 13.9961 11.8438C13.6966 11.974 13.3763 12.0391 13.0352 12.0391C12.7435 12.0391 12.4518 11.9909 12.1602 11.8945C11.8711 11.7982 11.6107 11.6523 11.3789 11.457L11.8984 10.5C12.0729 10.6146 12.2565 10.6992 12.4492 10.7539C12.6419 10.8086 12.8294 10.8359 13.0117 10.8359C13.2357 10.8359 13.4401 10.8008 13.625 10.7305C13.8125 10.6576 13.9753 10.543 14.1133 10.3867L13.125 8.14844L14.2344 7.61719ZM18.5391 9.87891C18.5391 10.1185 18.5573 10.306 18.5938 10.4414C18.6328 10.5742 18.7122 10.6667 18.832 10.7188C18.9518 10.7708 19.1354 10.7969 19.3828 10.7969H19.543V12H19.375C19.0521 12 18.7552 11.9362 18.4844 11.8086C18.2135 11.681 18.0299 11.5052 17.9336 11.2812C17.8685 11.4297 17.7604 11.5586 17.6094 11.668C17.4609 11.7747 17.2865 11.8568 17.0859 11.9141C16.888 11.9714 16.6823 12 16.4688 12H16.3203C16.2656 12 16.2253 11.9596 16.1992 11.8789C16.1706 11.7982 16.1562 11.638 16.1562 11.3984C16.1562 11.1589 16.1706 10.9987 16.1992 10.918C16.2253 10.8372 16.2656 10.7969 16.3203 10.7969H16.4688C16.7188 10.7969 16.9049 10.7708 17.0273 10.7188C17.1523 10.6641 17.2344 10.5703 17.2734 10.4375C17.3151 10.3047 17.3359 10.1185 17.3359 9.87891V9.17188H18.5391V9.87891ZM16.1289 13.332L16.8711 12.5898L17.6094 13.332L16.8711 14.0703L16.1289 13.332ZM19.5391 10.7969C19.724 10.7969 19.8789 10.75 20.0039 10.6562C20.1289 10.5599 20.2383 10.4362 20.332 10.2852C20.4258 10.1315 20.5156 9.96745 20.6016 9.79297C20.7109 9.57682 20.8268 9.37109 20.9492 9.17578C21.0742 8.98047 21.2279 8.82031 21.4102 8.69531C21.5951 8.57031 21.8307 8.50781 22.1172 8.50781C22.4323 8.50781 22.7083 8.59896 22.9453 8.78125C23.1849 8.96094 23.3711 9.19531 23.5039 9.48438C23.6367 9.77344 23.7031 10.082 23.7031 10.4102C23.7031 10.9049 23.5703 11.3008 23.3047 11.5977C23.0391 11.8919 22.6654 12.0391 22.1836 12.0391C21.9154 12.0391 21.6549 11.9831 21.4023 11.8711C21.1523 11.7565 20.9544 11.6042 20.8086 11.4141C20.6549 11.5964 20.4766 11.7396 20.2734 11.8438C20.0729 11.9479 19.8281 12 19.5391 12C19.4844 12 19.444 11.9596 19.418 11.8789C19.3893 11.7982 19.375 11.638 19.375 11.3984C19.375 11.1589 19.3893 10.9987 19.418 10.918C19.444 10.8372 19.4844 10.7969 19.5391 10.7969ZM21.418 10.4922C21.5404 10.6068 21.6693 10.694 21.8047 10.7539C21.9401 10.8112 22.0677 10.8398 22.1875 10.8398C22.2891 10.8398 22.3841 10.806 22.4727 10.7383C22.5638 10.668 22.6094 10.5586 22.6094 10.4102C22.6094 10.2695 22.5846 10.1458 22.5352 10.0391C22.4857 9.92969 22.4219 9.84505 22.3438 9.78516C22.2682 9.72266 22.1888 9.69141 22.1055 9.69141C22.0299 9.69141 21.957 9.70964 21.8867 9.74609C21.819 9.78255 21.7513 9.84896 21.6836 9.94531C21.6159 10.0391 21.5482 10.1719 21.4805 10.3438L21.418 10.4922Z" fill="#034159"/>
<line x1="36.5" y1="20" x2="36.5" y2="28" stroke="#034159"/>
<defs>
<filter id="filter0_d_609_20562" x="0" y="0" width="50" height="28" filterUnits="userSpaceOnUse" color-interpolation-filters="sRGB">
<feFlood flood-opacity="0" result="BackgroundImageFix"/>
<feColorMatrix in="SourceAlpha" type="matrix" values="0 0 0 0 0 0 0 0 0 0 0 0 0 0 0 0 0 0 127 0" result="hardAlpha"/>
<feOffset dy="4"/>
<feGaussianBlur stdDeviation="2"/>
<feComposite in2="hardAlpha" operator="out"/>
<feColorMatrix type="matrix" values="0 0 0 0 0 0 0 0 0 0 0 0 0 0 0 0 0 0 0.05 0"/>
<feBlend mode="normal" in2="BackgroundImageFix" result="effect1_dropShadow_609_20562"/>
<feBlend mode="normal" in="SourceGraphic" in2="effect1_dropShadow_609_20562" result="shape"/>
</filter>
</defs>
</svg>
