<svg width="63" height="36" viewBox="0 0 63 36" fill="none" xmlns="http://www.w3.org/2000/svg">
<g filter="url(#filter0_d_609_20561)">
<rect x="55" y="4" width="20" height="47" rx="6" transform="rotate(90 55 4)" fill="white"/>
</g>
<path d="M15.6094 11.6172L16.6367 14.0195C16.7669 14.3242 16.9049 14.5299 17.0508 14.6367C17.1992 14.7435 17.3984 14.7969 17.6484 14.7969H17.6914V16H17.6328C17.3021 16 17.0026 15.9427 16.7344 15.8281C16.4661 15.7109 16.2448 15.5143 16.0703 15.2383C15.9062 15.5117 15.6732 15.7135 15.3711 15.8438C15.0716 15.974 14.7513 16.0391 14.4102 16.0391C14.1185 16.0391 13.8268 15.9909 13.5352 15.8945C13.2461 15.7982 12.9857 15.6523 12.7539 15.457L13.2734 14.5C13.4479 14.6146 13.6315 14.6992 13.8242 14.7539C14.0169 14.8086 14.2044 14.8359 14.3867 14.8359C14.6107 14.8359 14.8151 14.8008 15 14.7305C15.1875 14.6576 15.3503 14.543 15.4883 14.3867L14.5 12.1484L15.6094 11.6172ZM18.7109 13.1719H19.9141L19.918 13.9531C19.9232 14.0234 19.9323 14.0794 19.9453 14.1211C19.9609 14.1628 19.9805 14.1966 20.0039 14.2227C20.0273 14.2461 20.0547 14.2682 20.0859 14.2891C20.2865 13.9167 20.5091 13.5964 20.7539 13.3281C21.0013 13.0599 21.2643 12.8542 21.543 12.7109C21.8242 12.5677 22.1172 12.4961 22.4219 12.4961C22.7552 12.4961 23.0443 12.5716 23.2891 12.7227C23.5339 12.8711 23.7227 13.0729 23.8555 13.3281C23.9883 13.5833 24.0547 13.8698 24.0547 14.1875C24.0547 14.2891 24.0456 14.3841 24.0273 14.4727C24.0091 14.5612 23.9831 14.6432 23.9492 14.7188C24.0247 14.7448 24.1042 14.7643 24.1875 14.7773C24.2708 14.7904 24.3646 14.7969 24.4688 14.7969H24.4727V16H24.4688C24.237 16 24.0234 15.9661 23.8281 15.8984C23.6328 15.8307 23.4753 15.724 23.3555 15.5781C23.1263 15.7292 22.8516 15.8372 22.5312 15.9023C22.2109 15.9674 21.8646 16 21.4922 16C20.974 16 20.526 15.9362 20.1484 15.8086C19.7734 15.6784 19.4935 15.5026 19.3086 15.2812C19.2435 15.4297 19.1354 15.5586 18.9844 15.668C18.8359 15.7747 18.6615 15.8568 18.4609 15.9141C18.263 15.9714 18.0573 16 17.8438 16H17.6953C17.6406 16 17.6003 15.9596 17.5742 15.8789C17.5456 15.7982 17.5312 15.638 17.5312 15.3984C17.5312 15.1589 17.5456 14.9987 17.5742 14.918C17.6003 14.8372 17.6406 14.7969 17.6953 14.7969H17.8438C18.0938 14.7969 18.2799 14.7708 18.4023 14.7188C18.5273 14.6641 18.6094 14.5703 18.6484 14.4375C18.6901 14.3047 18.7109 14.1185 18.7109 13.8789V13.1719ZM22.1992 13.6758C22.0768 13.6758 21.944 13.7109 21.8008 13.7812C21.6602 13.849 21.5117 13.957 21.3555 14.1055C21.1992 14.2539 21.0365 14.4466 20.8672 14.6836C20.9661 14.7253 21.0794 14.7552 21.207 14.7734C21.3346 14.7891 21.4701 14.7969 21.6133 14.7969C21.7669 14.7969 21.9115 14.7852 22.0469 14.7617C22.1849 14.7383 22.3047 14.7018 22.4062 14.6523C22.5104 14.6029 22.5911 14.5391 22.6484 14.4609C22.7083 14.3802 22.7383 14.2839 22.7383 14.1719C22.7383 14.026 22.6888 13.9076 22.5898 13.8164C22.4909 13.7227 22.3607 13.6758 22.1992 13.6758ZM26.4414 10.5547L27.1836 9.8125L27.9219 10.5547L27.1836 11.293L26.4414 10.5547ZM25.0742 10.5547L25.8164 9.8125L26.5547 10.5547L25.8164 11.293L25.0742 10.5547ZM24.8086 13.6094C24.8086 13.2786 24.8828 12.9857 25.0312 12.7305C25.1823 12.4727 25.3854 12.2708 25.6406 12.125C25.8984 11.9766 26.1875 11.9023 26.5078 11.9023C26.8229 11.9023 27.1081 11.9753 27.3633 12.1211C27.6185 12.2643 27.8216 12.4635 27.9727 12.7188C28.1263 12.9714 28.2031 13.2617 28.2031 13.5898C28.2031 13.8477 28.1497 14.0742 28.043 14.2695C27.9362 14.4622 27.7982 14.6237 27.6289 14.7539C27.7174 14.7695 27.806 14.7812 27.8945 14.7891C27.9857 14.7943 28.082 14.7969 28.1836 14.7969H28.5352V16H28.0664C27.7826 16 27.5039 15.9727 27.2305 15.918C26.957 15.8633 26.707 15.7852 26.4805 15.6836C26.2539 15.7852 26.0052 15.8633 25.7344 15.918C25.4635 15.9727 25.1849 16 24.8984 16H24.4766C24.4219 16 24.3802 15.9596 24.3516 15.8789C24.3229 15.7982 24.3086 15.638 24.3086 15.3984C24.3086 15.1589 24.3229 14.9987 24.3516 14.918C24.3802 14.8372 24.4219 14.7969 24.4766 14.7969H24.7891C24.8958 14.7969 24.9961 14.7943 25.0898 14.7891C25.1862 14.7812 25.2826 14.7695 25.3789 14.7539C25.2122 14.6263 25.0755 14.4688 24.9688 14.2812C24.862 14.0938 24.8086 13.8698 24.8086 13.6094ZM26.5 14.4844C26.6615 14.3984 26.7839 14.2852 26.8672 14.1445C26.9531 14.0039 26.9961 13.8451 26.9961 13.668C26.9961 13.5221 26.9557 13.3919 26.875 13.2773C26.7969 13.1602 26.6745 13.1016 26.5078 13.1016C26.3385 13.1016 26.2135 13.1589 26.1328 13.2734C26.0521 13.388 26.0117 13.5195 26.0117 13.668C26.0117 13.8424 26.056 14.0013 26.1445 14.1445C26.2357 14.2852 26.3542 14.3984 26.5 14.4844ZM28.5391 14.7969C28.724 14.7969 28.8789 14.75 29.0039 14.6562C29.1289 14.5599 29.2383 14.4362 29.332 14.2852C29.4258 14.1315 29.5156 13.9674 29.6016 13.793C29.7109 13.5768 29.8268 13.3711 29.9492 13.1758C30.0742 12.9805 30.2279 12.8203 30.4102 12.6953C30.5951 12.5703 30.8307 12.5078 31.1172 12.5078C31.4323 12.5078 31.7083 12.599 31.9453 12.7812C32.1849 12.9609 32.3711 13.1953 32.5039 13.4844C32.6367 13.7734 32.7031 14.082 32.7031 14.4102C32.7031 14.9049 32.5703 15.3008 32.3047 15.5977C32.0391 15.8919 31.6654 16.0391 31.1836 16.0391C30.9154 16.0391 30.6549 15.9831 30.4023 15.8711C30.1523 15.7565 29.9544 15.6042 29.8086 15.4141C29.6549 15.5964 29.4766 15.7396 29.2734 15.8438C29.0729 15.9479 28.8281 16 28.5391 16C28.4844 16 28.444 15.9596 28.418 15.8789C28.3893 15.7982 28.375 15.638 28.375 15.3984C28.375 15.1589 28.3893 14.9987 28.418 14.918C28.444 14.8372 28.4844 14.7969 28.5391 14.7969ZM30.418 14.4922C30.5404 14.6068 30.6693 14.694 30.8047 14.7539C30.9401 14.8112 31.0677 14.8398 31.1875 14.8398C31.2891 14.8398 31.3841 14.806 31.4727 14.7383C31.5638 14.668 31.6094 14.5586 31.6094 14.4102C31.6094 14.2695 31.5846 14.1458 31.5352 14.0391C31.4857 13.9297 31.4219 13.8451 31.3438 13.7852C31.2682 13.7227 31.1888 13.6914 31.1055 13.6914C31.0299 13.6914 30.957 13.7096 30.8867 13.7461C30.819 13.7826 30.7513 13.849 30.6836 13.9453C30.6159 14.0391 30.5482 14.1719 30.4805 14.3438L30.418 14.4922Z" fill="#FF4D08"/>
<line x1="45.5" y1="24" x2="45.5" y2="32" stroke="#FF4D08"/>
<rect x="37" y="6" width="16" height="16" rx="4" fill="#FF4D08"/>
<rect x="41" y="10" width="8" height="8" rx="2" fill="white"/>
<defs>
<filter id="filter0_d_609_20561" x="0" y="0" width="63" height="36" filterUnits="userSpaceOnUse" color-interpolation-filters="sRGB">
<feFlood flood-opacity="0" result="BackgroundImageFix"/>
<feColorMatrix in="SourceAlpha" type="matrix" values="0 0 0 0 0 0 0 0 0 0 0 0 0 0 0 0 0 0 127 0" result="hardAlpha"/>
<feOffset dy="4"/>
<feGaussianBlur stdDeviation="4"/>
<feComposite in2="hardAlpha" operator="out"/>
<feColorMatrix type="matrix" values="0 0 0 0 0 0 0 0 0 0 0 0 0 0 0 0 0 0 0.05 0"/>
<feBlend mode="normal" in2="BackgroundImageFix" result="effect1_dropShadow_609_20561"/>
<feBlend mode="normal" in="SourceGraphic" in2="effect1_dropShadow_609_20561" result="shape"/>
</filter>
</defs>
</svg>
