<svg width="32" height="32" viewBox="0 0 32 32" fill="none" xmlns="http://www.w3.org/2000/svg">
<path d="M19.24 25.0932C18.9867 25.0932 18.7333 24.9999 18.5333 24.7999C18.1467 24.4132 18.1467 23.7732 18.5333 23.3866L25.92 15.9999L18.5333 8.61325C18.1467 8.22658 18.1467 7.58658 18.5333 7.19991C18.92 6.81325 19.56 6.81325 19.9467 7.19991L28.04 15.2932C28.4267 15.6799 28.4267 16.3199 28.04 16.7066L19.9467 24.7999C19.7467 24.9999 19.4933 25.0932 19.24 25.0932Z" fill="#33393F"/>
<path d="M27.1067 17H4.66669C4.12002 17 3.66669 16.5467 3.66669 16C3.66669 15.4533 4.12002 15 4.66669 15H27.1067C27.6534 15 28.1067 15.4533 28.1067 16C28.1067 16.5467 27.6534 17 27.1067 17Z" fill="#33393F"/>
</svg>
