<svg width="64" height="61" viewBox="0 0 64 61" fill="none" xmlns="http://www.w3.org/2000/svg">
<path d="M35.811 14.4961C45.7779 14.4961 53 22.6854 53 31.7732C53 34.6757 52.1594 37.6646 50.6841 40.3944C50.4096 40.8436 50.3753 41.4138 50.564 41.9494L51.7134 45.8194C51.9707 46.7524 51.1816 47.4435 50.3067 47.167L46.8415 46.1304C45.898 45.8194 45.1603 46.2168 44.2837 46.7524C41.7791 48.2382 38.6587 48.9984 35.8454 48.9984C27.3366 48.9984 18.6907 42.3813 18.6907 31.7213C18.6907 22.5299 26.0672 14.4961 35.811 14.4961Z" fill="url(#paint0_linear_262_7527)"/>
<g opacity="0.5" filter="url(#filter0_f_262_7527)">
<path d="M46.7645 31.9472C46.7645 38.1109 41.8044 43.1053 35.6855 43.1053C29.5665 43.1053 24.6064 38.1109 24.6064 31.9472C24.6064 25.7857 29.5665 20.7891 35.6855 20.7891C41.8044 20.7891 46.7645 25.7857 46.7645 31.9472Z" fill="#8237FF"/>
</g>
<g filter="url(#filter1_b_262_7527)">
<mask id="path-3-outside-1_262_7527" maskUnits="userSpaceOnUse" x="0" y="0" width="46" height="47" fill="black">
<rect fill="white" width="46" height="47"/>
<path d="M22.9338 1C10.2157 1 1 11.4499 1 23.0462C1 26.75 2.07261 30.564 3.95515 34.0473C4.30539 34.6205 4.34917 35.348 4.10838 36.0315L2.64175 40.9698C2.3134 42.1603 3.32034 43.0422 4.43673 42.6894L8.85852 41.3667C10.0625 40.9698 11.0037 41.4769 12.1223 42.1603C15.3183 44.0563 19.3001 45.0263 22.89 45.0263C33.7475 45.0263 44.78 36.5826 44.78 22.9801C44.78 11.2515 35.3673 1 22.9338 1Z"/>
</mask>
<path d="M22.9338 1C10.2157 1 1 11.4499 1 23.0462C1 26.75 2.07261 30.564 3.95515 34.0473C4.30539 34.6205 4.34917 35.348 4.10838 36.0315L2.64175 40.9698C2.3134 42.1603 3.32034 43.0422 4.43673 42.6894L8.85852 41.3667C10.0625 40.9698 11.0037 41.4769 12.1223 42.1603C15.3183 44.0563 19.3001 45.0263 22.89 45.0263C33.7475 45.0263 44.78 36.5826 44.78 22.9801C44.78 11.2515 35.3673 1 22.9338 1Z" fill="#BA90FF" fill-opacity="0.35"/>
<path d="M22.9338 2C23.4861 2 23.9338 1.55228 23.9338 1C23.9338 0.447715 23.4861 0 22.9338 0V2ZM3.95515 34.0473L3.07541 34.5228C3.08381 34.5383 3.09262 34.5536 3.10184 34.5687L3.95515 34.0473ZM4.10838 36.0315L3.16521 35.6992C3.15967 35.7149 3.15452 35.7308 3.14977 35.7468L4.10838 36.0315ZM2.64175 40.9698L1.68313 40.6851C1.68128 40.6914 1.67948 40.6977 1.67775 40.7039L2.64175 40.9698ZM4.43673 42.6894L4.15013 41.7314C4.14523 41.7328 4.14033 41.7344 4.13545 41.7359L4.43673 42.6894ZM8.85852 41.3667L9.14512 42.3247C9.15397 42.3221 9.16278 42.3193 9.17156 42.3164L8.85852 41.3667ZM12.1223 42.1603L11.6009 43.0137L11.6121 43.0204L12.1223 42.1603ZM22.9338 0C22.3815 0 21.9338 0.447715 21.9338 1C21.9338 1.55228 22.3815 2 22.9338 2V0ZM22.9338 0C9.62395 0 0 10.9379 0 23.0462H2C2 11.9619 10.8074 2 22.9338 2V0ZM0 23.0462C0 26.9395 1.12593 30.9156 3.07541 34.5228L4.83489 33.5719C3.01929 30.2124 2 26.5605 2 23.0462H0ZM3.10184 34.5687C3.27125 34.846 3.32248 35.2528 3.16521 35.6992L5.05156 36.3638C5.37586 35.4433 5.33953 34.395 4.80847 33.5259L3.10184 34.5687ZM3.14977 35.7468L1.68313 40.6851L3.60037 41.2545L5.067 36.3162L3.14977 35.7468ZM1.67775 40.7039C1.42038 41.6371 1.67712 42.547 2.31706 43.1412C2.94698 43.726 3.85804 43.921 4.73802 43.643L4.13545 41.7359C3.89904 41.8106 3.74843 41.741 3.67787 41.6755C3.61733 41.6193 3.53478 41.4931 3.60576 41.2357L1.67775 40.7039ZM4.72333 43.6475L9.14512 42.3247L8.57192 40.4086L4.15013 41.7314L4.72333 43.6475ZM9.17156 42.3164C9.89152 42.0791 10.4561 42.3142 11.6009 43.0136L12.6437 41.307C11.5514 40.6396 10.2334 39.8606 8.54547 40.4169L9.17156 42.3164ZM11.6121 43.0204C14.9779 45.0171 19.1393 46.0263 22.89 46.0263V44.0263C19.4608 44.0263 15.6587 43.0955 12.6325 41.3003L11.6121 43.0204ZM22.89 46.0263C34.2261 46.0263 45.78 37.2058 45.78 22.9801H43.78C43.78 35.9594 33.2689 44.0263 22.89 44.0263V46.0263ZM45.78 22.9801C45.78 10.7283 35.9483 0 22.9338 0V2C34.7864 2 43.78 11.7747 43.78 22.9801H45.78Z" fill="url(#paint1_linear_262_7527)" mask="url(#path-3-outside-1_262_7527)"/>
</g>
<g filter="url(#filter2_bd_262_7527)">
<mask id="path-5-inside-2_262_7527" fill="white">
<path fill-rule="evenodd" clip-rule="evenodd" d="M12.755 25.8899C11.2227 25.8899 9.95312 24.6112 9.95312 23.068C9.95312 21.5027 11.2009 20.2461 12.755 20.2461C14.3092 20.2461 15.557 21.5027 15.557 23.068C15.557 24.6112 14.3092 25.8679 12.755 25.8899ZM22.3589 25.8902C20.8047 25.8682 19.557 24.6115 19.557 23.0462C19.557 21.503 20.8266 20.2243 22.3589 20.2464C23.9131 20.2464 25.1608 21.503 25.1608 23.0683C25.1608 24.6115 23.9131 25.8902 22.3589 25.8902ZM29.1608 23.068C29.1608 24.6112 30.4085 25.8899 31.9627 25.8899C33.5169 25.8899 34.7647 24.6112 34.7647 23.068C34.7647 21.5027 33.5169 20.2461 31.9627 20.2461C30.4085 20.2461 29.1608 21.5027 29.1608 23.068Z"/>
</mask>
<path fill-rule="evenodd" clip-rule="evenodd" d="M12.755 25.8899C11.2227 25.8899 9.95312 24.6112 9.95312 23.068C9.95312 21.5027 11.2009 20.2461 12.755 20.2461C14.3092 20.2461 15.557 21.5027 15.557 23.068C15.557 24.6112 14.3092 25.8679 12.755 25.8899ZM22.3589 25.8902C20.8047 25.8682 19.557 24.6115 19.557 23.0462C19.557 21.503 20.8266 20.2243 22.3589 20.2464C23.9131 20.2464 25.1608 21.503 25.1608 23.0683C25.1608 24.6115 23.9131 25.8902 22.3589 25.8902ZM29.1608 23.068C29.1608 24.6112 30.4085 25.8899 31.9627 25.8899C33.5169 25.8899 34.7647 24.6112 34.7647 23.068C34.7647 21.5027 33.5169 20.2461 31.9627 20.2461C30.4085 20.2461 29.1608 21.5027 29.1608 23.068Z" fill="url(#paint2_linear_262_7527)"/>
<path d="M12.755 25.8899V26.29L12.7607 26.2899L12.755 25.8899ZM22.3589 25.8902L22.3532 26.2902H22.3589V25.8902ZM22.3589 20.2464L22.3531 20.6464H22.3589V20.2464ZM9.55312 23.068C9.55312 24.8295 10.9992 26.2899 12.755 26.2899V25.4899C11.4463 25.4899 10.3531 24.393 10.3531 23.068H9.55312ZM12.755 19.8461C10.9773 19.8461 9.55312 21.2845 9.55312 23.068H10.3531C10.3531 21.721 11.4244 20.6461 12.755 20.6461V19.8461ZM15.957 23.068C15.957 21.2845 14.5328 19.8461 12.755 19.8461V20.6461C14.0856 20.6461 15.157 21.721 15.157 23.068H15.957ZM12.7607 26.2899C14.5309 26.2648 15.957 24.8326 15.957 23.068H15.157C15.157 24.3899 14.0875 25.471 12.7494 25.49L12.7607 26.2899ZM19.157 23.0462C19.157 24.8309 20.581 26.265 22.3532 26.2902L22.3646 25.4902C21.0284 25.4713 19.957 24.3922 19.957 23.0462H19.157ZM22.3646 19.8464C20.6031 19.8211 19.157 21.286 19.157 23.0462H19.957C19.957 21.72 21.0501 20.6276 22.3531 20.6463L22.3646 19.8464ZM25.5608 23.0683C25.5608 21.2848 24.1367 19.8464 22.3589 19.8464V20.6464C23.6895 20.6464 24.7608 21.7212 24.7608 23.0683H25.5608ZM22.3589 26.2902C24.1387 26.2902 25.5608 24.8277 25.5608 23.0683H24.7608C24.7608 24.3953 23.6875 25.4902 22.3589 25.4902V26.2902ZM31.9627 25.4899C30.6342 25.4899 29.5608 24.3951 29.5608 23.068H28.7608C28.7608 24.8274 30.1829 26.2899 31.9627 26.2899V25.4899ZM34.3647 23.068C34.3647 24.3951 33.2913 25.4899 31.9627 25.4899V26.2899C33.7425 26.2899 35.1647 24.8274 35.1647 23.068H34.3647ZM31.9627 20.6461C33.2933 20.6461 34.3647 21.721 34.3647 23.068H35.1647C35.1647 21.2845 33.7405 19.8461 31.9627 19.8461V20.6461ZM29.5608 23.068C29.5608 21.721 30.6321 20.6461 31.9627 20.6461V19.8461C30.185 19.8461 28.7608 21.2845 28.7608 23.068H29.5608Z" fill="url(#paint3_linear_262_7527)" mask="url(#path-5-inside-2_262_7527)"/>
</g>
<defs>
<filter id="filter0_f_262_7527" x="7.60645" y="3.78906" width="56.1582" height="56.3164" filterUnits="userSpaceOnUse" color-interpolation-filters="sRGB">
<feFlood flood-opacity="0" result="BackgroundImageFix"/>
<feBlend mode="normal" in="SourceGraphic" in2="BackgroundImageFix" result="shape"/>
<feGaussianBlur stdDeviation="8.5" result="effect1_foregroundBlur_262_7527"/>
</filter>
<filter id="filter1_b_262_7527" x="-24" y="-24" width="93.7803" height="94.0273" filterUnits="userSpaceOnUse" color-interpolation-filters="sRGB">
<feFlood flood-opacity="0" result="BackgroundImageFix"/>
<feGaussianBlur in="BackgroundImageFix" stdDeviation="12"/>
<feComposite in2="SourceAlpha" operator="in" result="effect1_backgroundBlur_262_7527"/>
<feBlend mode="normal" in="SourceGraphic" in2="effect1_backgroundBlur_262_7527" result="shape"/>
</filter>
<filter id="filter2_bd_262_7527" x="-5.04688" y="5.24609" width="54.8115" height="35.6445" filterUnits="userSpaceOnUse" color-interpolation-filters="sRGB">
<feFlood flood-opacity="0" result="BackgroundImageFix"/>
<feGaussianBlur in="BackgroundImageFix" stdDeviation="7.5"/>
<feComposite in2="SourceAlpha" operator="in" result="effect1_backgroundBlur_262_7527"/>
<feColorMatrix in="SourceAlpha" type="matrix" values="0 0 0 0 0 0 0 0 0 0 0 0 0 0 0 0 0 0 127 0" result="hardAlpha"/>
<feOffset dx="5" dy="5"/>
<feGaussianBlur stdDeviation="5"/>
<feColorMatrix type="matrix" values="0 0 0 0 0.577356 0 0 0 0 0.359375 0 0 0 0 0.9375 0 0 0 0.5 0"/>
<feBlend mode="normal" in2="effect1_backgroundBlur_262_7527" result="effect2_dropShadow_262_7527"/>
<feBlend mode="normal" in="SourceGraphic" in2="effect2_dropShadow_262_7527" result="shape"/>
</filter>
<linearGradient id="paint0_linear_262_7527" x1="35.8454" y1="14.4961" x2="35.8454" y2="48.9984" gradientUnits="userSpaceOnUse">
<stop stop-color="#BC94FF"/>
<stop offset="1" stop-color="#9F66FF"/>
</linearGradient>
<linearGradient id="paint1_linear_262_7527" x1="7.96907" y1="6.12912" x2="36.086" y2="40.7578" gradientUnits="userSpaceOnUse">
<stop stop-color="white" stop-opacity="0.25"/>
<stop offset="1" stop-color="white" stop-opacity="0"/>
</linearGradient>
<linearGradient id="paint2_linear_262_7527" x1="33.0055" y1="21.2653" x2="5.8954" y2="25.151" gradientUnits="userSpaceOnUse">
<stop stop-color="white"/>
<stop offset="1" stop-color="white" stop-opacity="0.2"/>
</linearGradient>
<linearGradient id="paint3_linear_262_7527" x1="13.9027" y1="20.9036" x2="15.2115" y2="28.0293" gradientUnits="userSpaceOnUse">
<stop stop-color="white" stop-opacity="0.25"/>
<stop offset="1" stop-color="white" stop-opacity="0"/>
</linearGradient>
</defs>
</svg>
