<svg width="40" height="40" viewBox="0 0 40 40" fill="none" xmlns="http://www.w3.org/2000/svg">
<rect width="40" height="40" rx="16" fill="#E6F8FF"/>
<path d="M13.74 24C13.85 23.51 13.65 22.81 13.3 22.46L10.87 20.03C10.11 19.27 9.81 18.46 10.03 17.76C10.26 17.06 10.97 16.58 12.03 16.4L15.15 15.88C15.6 15.8 16.15 15.4 16.36 14.99L18.08 11.54C18.58 10.55 19.26 10 20 10C20.74 10 21.42 10.55 21.92 11.54L23.64 14.99C23.77 15.25 24.04 15.5 24.33 15.67L13.56 26.44C13.42 26.58 13.18 26.45 13.22 26.25L13.74 24Z" fill="#08BAFF"/>
<path d="M26.7 22.4599C26.34 22.8199 26.14 23.5099 26.26 23.9999L26.95 27.0099C27.24 28.2599 27.06 29.1999 26.44 29.6499C26.19 29.8299 25.89 29.9199 25.54 29.9199C25.03 29.9199 24.43 29.7299 23.77 29.3399L20.84 27.5999C20.38 27.3299 19.62 27.3299 19.16 27.5999L16.23 29.3399C15.12 29.9899 14.17 30.0999 13.56 29.6499C13.33 29.4799 13.16 29.2499 13.05 28.9499L25.21 16.7899C25.67 16.3299 26.32 16.1199 26.95 16.2299L27.96 16.3999C29.02 16.5799 29.73 17.0599 29.96 17.7599C30.18 18.4599 29.88 19.2699 29.12 20.0299L26.7 22.4599Z" fill="#08BAFF"/>
</svg>
