<svg width="40" height="40" viewBox="0 0 40 40" fill="none" xmlns="http://www.w3.org/2000/svg">
<rect width="40" height="40" rx="16" fill="#E6F8FF"/>
<path d="M19.9987 27.75H17.3187C16.1587 27.75 15.1487 27.05 14.7487 25.97C14.3387 24.89 14.6387 23.7 15.5087 22.93L23.4987 15.94C23.9787 15.52 23.9887 14.95 23.8487 14.56C23.6987 14.17 23.3187 13.75 22.6787 13.75H19.9987C19.5887 13.75 19.2487 13.41 19.2487 13C19.2487 12.59 19.5887 12.25 19.9987 12.25H22.6787C23.8387 12.25 24.8487 12.95 25.2487 14.03C25.6587 15.11 25.3587 16.3 24.4887 17.07L16.4987 24.06C16.0187 24.48 16.0087 25.05 16.1487 25.44C16.2987 25.83 16.6787 26.25 17.3187 26.25H19.9987C20.4087 26.25 20.7487 26.59 20.7487 27C20.7487 27.41 20.4087 27.75 19.9987 27.75Z" fill="#08BAFF"/>
<path d="M27.9988 23H24.9988C23.8988 23 22.9988 23.9 22.9988 25V28C22.9988 29.1 23.8988 30 24.9988 30H27.9988C29.0988 30 29.9988 29.1 29.9988 28V25C29.9988 23.9 29.0988 23 27.9988 23ZM26.5088 27.5C25.9588 27.5 25.5088 27.05 25.5088 26.5C25.5088 25.95 25.9488 25.5 26.5088 25.5H26.5188C27.0688 25.5 27.5188 25.95 27.5188 26.5C27.5188 27.05 27.0688 27.5 26.5088 27.5Z" fill="#08BAFF"/>
<path d="M13.4687 10C11.5387 10 9.96875 11.57 9.96875 13.5C9.96875 15.43 11.5387 17 13.4687 17C15.3987 17 16.9688 15.43 16.9688 13.5C16.9688 11.57 15.4087 10 13.4687 10ZM13.5088 14.5C12.9588 14.5 12.5088 14.05 12.5088 13.5C12.5088 12.95 12.9488 12.5 13.5088 12.5H13.5187C14.0687 12.5 14.5188 12.95 14.5188 13.5C14.5188 14.05 14.0688 14.5 13.5088 14.5Z" fill="#08BAFF"/>
</svg>
