<svg width="40" height="40" viewBox="0 0 40 40" fill="none" xmlns="http://www.w3.org/2000/svg">
<rect width="40" height="40" rx="16" fill="#FFF6F3"/>
<path d="M30 20.6201V22.6801C30 23.2401 29.54 23.7001 28.97 23.7001H27.04C25.96 23.7001 24.97 22.9101 24.88 21.8301C24.82 21.2001 25.06 20.6101 25.48 20.2001C25.85 19.8201 26.36 19.6001 26.92 19.6001H28.97C29.54 19.6001 30 20.0601 30 20.6201Z" fill="#FF4D08"/>
<path d="M23.38 21.9599C23.29 20.9099 23.67 19.8799 24.43 19.1299C25.07 18.4799 25.96 18.0999 26.92 18.0999H27.49C27.77 18.0999 28 17.8699 27.96 17.5899C27.69 15.6499 26.01 14.1499 24 14.1499H14C11.79 14.1499 10 15.9399 10 18.1499V25.1499C10 27.3599 11.79 29.1499 14 29.1499H24C26.02 29.1499 27.69 27.6499 27.96 25.7099C28 25.4299 27.77 25.1999 27.49 25.1999H27.04C25.14 25.1999 23.54 23.7799 23.38 21.9599ZM21 19.8999H15C14.59 19.8999 14.25 19.5699 14.25 19.1499C14.25 18.7299 14.59 18.3999 15 18.3999H21C21.41 18.3999 21.75 18.7399 21.75 19.1499C21.75 19.5599 21.41 19.8999 21 19.8999Z" fill="#FF4D08"/>
<path d="M22.21 11.9801C22.47 12.2501 22.24 12.6501 21.86 12.6501H14.03C12.94 12.6501 11.92 12.9701 11.07 13.5201C10.68 13.7701 10.15 13.5001 10.34 13.0701C10.9 11.7601 12.21 10.8501 13.72 10.8501H19.34C20.5 10.8501 21.53 11.2601 22.21 11.9801Z" fill="#FF4D08"/>
</svg>
