<svg width="61" height="48" viewBox="0 0 61 48" fill="none" xmlns="http://www.w3.org/2000/svg">
<path d="M32.3899 29.0342C31.647 27.4899 31.4512 26.2693 31.9574 24.4163L32.1295 23.7862C32.7892 21.3714 32.6539 19.6682 31.8607 17.7922C30.6431 14.8824 27.8799 12.5953 24.7855 11.782L24.6539 11.7474C21.6246 10.9512 18.1831 11.5359 15.6397 13.3521C13.9213 14.6015 12.8527 16.0599 12.1747 18.5416L12.0026 19.1716C11.4964 21.0247 10.7372 21.9942 9.27413 22.9588C8.19732 23.6696 7.60859 24.7922 7.25623 26.0821C6.90346 27.3735 6.99665 28.7088 7.58258 29.9283C8.37621 31.4143 9.74884 32.5905 11.3272 33.1471C13.5924 34.0259 15.9026 34.7398 18.2741 35.3631C20.6441 35.986 23.027 36.4339 25.4199 36.851C27.069 37.1427 28.8573 36.7972 30.3021 35.8996C31.4297 35.1304 32.1925 34.0201 32.5453 32.7287C32.8977 31.4388 32.9601 30.1779 32.3899 29.0342Z" fill="url(#paint0_linear_264_6615)"/>
<path d="M20.7767 38.0313C20.0754 37.6778 15.5396 36.4851 14.7521 36.4471C14.076 36.4256 13.2952 36.5839 13.092 37.328C12.9352 38.0477 13.1829 38.7843 13.6546 39.3342L13.6527 39.3353C14.2445 40.113 15.0243 40.7136 15.9101 41.0885C16.3831 41.2847 16.8841 41.4133 17.4106 41.4831C18.3673 41.5927 19.3486 41.4552 20.2574 41.0721L20.2563 41.0702C20.9449 40.8254 21.5348 40.309 21.7656 39.6088C21.9687 38.8647 21.3732 38.3445 20.7767 38.0313Z" fill="url(#paint1_linear_264_6615)"/>
<g opacity="0.5" filter="url(#filter0_f_264_6615)">
<path d="M27.2187 26.6848C26.9414 25.7199 26.909 24.9384 27.2437 23.7131L27.3575 23.2965C27.7936 21.6999 27.8144 20.6027 27.5296 19.4253C27.094 17.5984 25.889 16.2497 24.4518 15.8719L24.3907 15.8559C22.9838 15.486 21.3108 16.031 20.005 17.3306C19.1217 18.2231 18.5382 19.2197 18.09 20.8606L17.9762 21.2772C17.6415 22.5024 17.2303 23.1673 16.4832 23.8629C15.9333 24.3755 15.5958 25.1314 15.3628 25.9843C15.1296 26.8381 15.1072 27.6989 15.3259 28.4609C15.6304 29.3856 16.227 30.0816 16.9529 30.3661C17.9907 30.8263 19.0583 31.1775 20.1597 31.467C21.2604 31.7563 22.376 31.9316 23.4979 32.0864C24.271 32.1959 25.1424 31.8858 25.8774 31.2344C26.4545 30.6815 26.8745 29.9252 27.1078 29.0714C27.3407 28.2185 27.4337 27.3984 27.2187 26.6848Z" fill="#0062FF"/>
</g>
<g filter="url(#filter1_b_264_6615)">
<mask id="path-4-outside-1_264_6615" maskUnits="userSpaceOnUse" x="13.7477" y="-1.27116" width="46.8873" height="44.3336" fill="black">
<rect fill="white" x="13.7477" y="-1.27116" width="46.8873" height="44.3336"/>
<path d="M54.5259 20.9258C52.5568 19.433 51.5017 18.0038 50.9291 15.3219L50.7344 14.4101C49.9881 10.9153 48.6926 8.83307 46.4403 6.94996C42.9634 4.02115 37.917 2.86998 33.4175 3.80632L33.2261 3.84614C28.8212 4.76279 24.7983 7.70016 22.7371 11.6332C21.3594 14.3188 20.9515 16.8566 21.7184 20.4482L21.9131 21.3601C22.4857 24.0419 22.152 25.7601 20.9136 27.9204C20.0027 29.5116 19.9883 31.316 20.3869 33.1828C20.786 35.0517 21.7852 36.6924 23.3393 37.8717C25.335 39.2579 27.8683 39.8808 30.2567 39.5837C33.7373 39.2592 37.167 38.696 40.6153 37.9784C44.0614 37.2613 47.4088 36.3131 50.7488 35.3194C53.0533 34.6399 55.1164 33.0605 56.3755 30.997C57.313 29.2992 57.5585 27.3995 57.1594 25.5306C56.7608 23.6638 56.0099 22.0186 54.5259 20.9258Z"/>
</mask>
<path d="M54.5259 20.9258C52.5568 19.433 51.5017 18.0038 50.9291 15.3219L50.7344 14.4101C49.9881 10.9153 48.6926 8.83307 46.4403 6.94996C42.9634 4.02115 37.917 2.86998 33.4175 3.80632L33.2261 3.84614C28.8212 4.76279 24.7983 7.70016 22.7371 11.6332C21.3594 14.3188 20.9515 16.8566 21.7184 20.4482L21.9131 21.3601C22.4857 24.0419 22.152 25.7601 20.9136 27.9204C20.0027 29.5116 19.9883 31.316 20.3869 33.1828C20.786 35.0517 21.7852 36.6924 23.3393 37.8717C25.335 39.2579 27.8683 39.8808 30.2567 39.5837C33.7373 39.2592 37.167 38.696 40.6153 37.9784C44.0614 37.2613 47.4088 36.3131 50.7488 35.3194C53.0533 34.6399 55.1164 33.0605 56.3755 30.997C57.313 29.2992 57.5585 27.3995 57.1594 25.5306C56.7608 23.6638 56.0099 22.0186 54.5259 20.9258Z" fill="#3EA0FE" fill-opacity="0.35"/>
<path d="M53.9227 21.7202C54.364 22.0547 54.9917 21.9702 55.3248 21.5315C55.6579 21.0927 55.5703 20.4659 55.1291 20.1314L53.9227 21.7202ZM46.4403 6.94996L45.7967 7.71204L45.7996 7.71441L46.4403 6.94996ZM22.7371 11.6332L21.8495 11.1669L21.8456 11.1746L22.7371 11.6332ZM20.9136 27.9204L20.0441 27.4212L20.0438 27.4218L20.9136 27.9204ZM23.3393 37.8717L22.7358 38.6658C22.747 38.6744 22.7585 38.6827 22.7701 38.6907L23.3393 37.8717ZM30.2567 39.5837L30.1589 38.5891C30.1487 38.59 30.1385 38.5911 30.1283 38.5924L30.2567 39.5837ZM50.7488 35.3194L50.4609 34.3612L50.4585 34.362L50.7488 35.3194ZM56.3755 30.997L57.2312 31.5195C57.2386 31.5073 57.2458 31.4949 57.2528 31.4823L56.3755 30.997ZM55.1178 20.123C54.6719 19.7946 54.0455 19.8879 53.7186 20.3313C53.3917 20.7746 53.4881 21.4002 53.934 21.7286L55.1178 20.123ZM55.1291 20.1314C54.1987 19.4261 53.5363 18.7749 53.0385 18.0222C52.5423 17.2721 52.1751 16.3688 51.9081 15.1182L49.95 15.5257C50.2557 16.957 50.7023 18.1092 51.3692 19.1173C52.0343 20.1229 52.884 20.9327 53.9227 21.7202L55.1291 20.1314ZM51.9081 15.1182L51.7134 14.2063L49.7553 14.6138L49.95 15.5257L51.9081 15.1182ZM51.7134 14.2063C50.9243 10.5106 49.5195 8.22427 47.0811 6.18551L45.7996 7.71441C47.8656 9.44186 49.052 11.3199 49.7553 14.6138L51.7134 14.2063ZM47.0839 6.18788C43.3542 3.04615 37.9881 1.83377 33.2087 2.82836L33.6263 4.78427C37.8459 3.90618 42.5726 4.99615 45.7967 7.71203L47.0839 6.18788ZM33.2087 2.82836L33.0173 2.86818L33.435 4.82409L33.6263 4.78427L33.2087 2.82836ZM33.0173 2.86818C28.3344 3.84267 24.0552 6.95825 21.8496 11.1669L23.6247 12.0994C25.5414 8.44207 29.3079 5.68291 33.435 4.82409L33.0173 2.86818ZM21.8456 11.1746C20.3592 14.072 19.9264 16.8446 20.7393 20.6519L22.6974 20.2445C21.9766 16.8686 22.3595 14.5657 23.6286 12.0917L21.8456 11.1746ZM20.7393 20.6519L20.934 21.5638L22.8921 21.1563L22.6974 20.2445L20.7393 20.6519ZM20.934 21.5638C21.2027 22.8219 21.2458 23.7927 21.1041 24.6728C20.9624 25.5528 20.6254 26.4073 20.0441 27.4212L21.7831 28.4195C22.4403 27.2732 22.8893 26.1885 23.0809 24.9989C23.2724 23.8093 23.1961 22.5801 22.8921 21.1563L20.934 21.5638ZM20.0438 27.4218C18.9621 29.3114 18.9835 31.399 19.4079 33.3865L21.3659 32.9791C20.9931 31.233 21.0433 29.7118 21.7834 28.419L20.0438 27.4218ZM19.4079 33.3865C19.8546 35.4787 20.9802 37.3337 22.7358 38.6658L23.9428 37.0776C22.5902 36.0512 21.7173 34.6247 21.3659 32.9791L19.4079 33.3865ZM22.7701 38.6907C24.9693 40.2182 27.7511 40.9026 30.3852 40.575L30.1283 38.5924C27.9855 38.8589 25.7008 38.2976 23.9086 37.0527L22.7701 38.6907ZM30.3546 40.5783C33.8811 40.2495 37.3488 39.6796 40.8241 38.9564L40.4064 37.0005C36.9851 37.7124 33.5936 38.2689 30.1589 38.5891L30.3546 40.5783ZM40.8241 38.9564C44.3131 38.2303 47.6936 37.2722 51.039 36.2768L50.4585 34.362C47.1241 35.3541 43.8097 36.2923 40.4064 37.0005L40.8241 38.9564ZM51.0366 36.2775C53.5785 35.528 55.8437 33.7933 57.2312 31.5195L55.5198 30.4745C54.389 32.3277 52.5281 33.7517 50.4609 34.3612L51.0366 36.2775ZM57.2528 31.4823C58.3113 29.5654 58.5854 27.4197 58.1385 25.3268L56.1804 25.7343C56.5317 27.3792 56.3147 29.033 55.4982 30.5117L57.2528 31.4823ZM58.1385 25.3268C57.7141 23.3393 56.8801 21.4208 55.1178 20.123L53.934 21.7286C55.1397 22.6164 55.8076 23.9882 56.1804 25.7343L58.1385 25.3268Z" fill="url(#paint2_linear_264_6615)" mask="url(#path-4-outside-1_264_6615)"/>
</g>
<g filter="url(#filter2_b_264_6615)">
<mask id="path-6-outside-2_264_6615" maskUnits="userSpaceOnUse" x="33.653" y="38.08" width="16.5648" height="11.8576" fill="black">
<rect fill="white" x="33.653" y="38.08" width="16.5648" height="11.8576"/>
<path d="M45.5533 39.8595C44.4233 39.8566 37.8341 41.2277 36.8014 41.6807C35.922 42.0839 35.027 42.7822 35.2566 43.8576C35.5294 44.8723 36.3312 45.6511 37.2965 46.0499L37.2948 46.0525C38.5639 46.6645 39.9569 46.9316 41.3371 46.8443C42.0715 46.7926 42.7972 46.6371 43.517 46.3907C44.8133 45.921 45.9786 45.1215 46.8894 44.0559L46.8868 44.0542C47.6069 43.3046 48.022 42.2726 47.8567 41.2356C47.6271 40.1602 46.5227 39.8779 45.5533 39.8595Z"/>
</mask>
<path d="M45.5533 39.8595C44.4233 39.8566 37.8341 41.2277 36.8014 41.6807C35.922 42.0839 35.027 42.7822 35.2566 43.8576C35.5294 44.8723 36.3312 45.6511 37.2965 46.0499L37.2948 46.0525C38.5639 46.6645 39.9569 46.9316 41.3371 46.8443C42.0715 46.7926 42.7972 46.6371 43.517 46.3907C44.8133 45.921 45.9786 45.1215 46.8894 44.0559L46.8868 44.0542C47.6069 43.3046 48.022 42.2726 47.8567 41.2356C47.6271 40.1602 46.5227 39.8779 45.5533 39.8595Z" fill="#3EA0FE" fill-opacity="0.35"/>
<path d="M45.5554 40.8585C46.1083 40.8599 46.5555 40.4138 46.5543 39.8621C46.5532 39.3104 46.104 38.862 45.5511 38.8606L45.5554 40.8585ZM36.8014 41.6807L36.3949 40.7659C36.3899 40.7681 36.3849 40.7704 36.38 40.7726L36.8014 41.6807ZM35.2566 43.8576L34.2776 44.0613C34.2813 44.0784 34.2853 44.0953 34.2899 44.1121L35.2566 43.8576ZM37.2965 46.0499L38.1368 46.5968C38.2987 46.348 38.3408 46.0397 38.2517 45.7556C38.1625 45.4715 37.9514 45.2412 37.6757 45.1272L37.2965 46.0499ZM37.2948 46.0525L36.4545 45.5057C36.2981 45.746 36.2532 46.0424 36.3314 46.3192C36.4095 46.596 36.6031 46.8264 36.8627 46.9516L37.2948 46.0525ZM41.3371 46.8443L41.4051 47.8413L41.4123 47.8408L41.3371 46.8443ZM43.517 46.3907L43.8458 47.3358C43.8514 47.3339 43.857 47.3319 43.8626 47.3299L43.517 46.3907ZM46.8894 44.0559L47.6523 44.7063C47.8387 44.4883 47.9216 44.2003 47.8799 43.9159C47.8382 43.6315 47.6759 43.3782 47.4345 43.2206L46.8894 44.0559ZM46.8868 44.0542L46.1626 43.3611C45.9569 43.5753 45.8579 43.8701 45.8925 44.1656C45.9272 44.4611 46.0918 44.7264 46.3417 44.8895L46.8868 44.0542ZM47.8567 41.2356L48.8453 41.0832C48.8425 41.066 48.8394 41.0489 48.8357 41.0318L47.8567 41.2356ZM45.5676 38.8607C45.0148 38.8502 44.5602 39.2889 44.5523 39.8405C44.5445 40.3921 44.9862 40.8478 45.539 40.8583L45.5676 38.8607ZM45.5511 38.8606C45.1653 38.8596 44.4506 38.9632 43.6811 39.0944C42.8733 39.2322 41.8991 39.4199 40.932 39.6212C39.9649 39.8224 38.9969 40.0389 38.2015 40.2347C37.4438 40.4213 36.7475 40.6113 36.3949 40.7659L37.2079 42.5955C37.3716 42.5237 37.8863 42.3724 38.6898 42.1746C39.4556 41.986 40.3991 41.7749 41.3497 41.5771C42.3002 41.3793 43.2497 41.1965 44.0275 41.0638C44.8435 40.9246 45.3763 40.858 45.5554 40.8585L45.5511 38.8606ZM36.38 40.7726C35.877 41.0032 35.2861 41.353 34.8479 41.8694C34.3823 42.4181 34.0867 43.1673 34.2776 44.0613L36.2357 43.6538C36.197 43.4726 36.234 43.3348 36.3784 43.1647C36.5501 42.9623 36.8464 42.7614 37.2228 42.5888L36.38 40.7726ZM34.2899 44.1121C34.6592 45.4861 35.7231 46.4792 36.9173 46.9726L37.6757 45.1272C36.9393 44.823 36.3996 44.2584 36.2234 43.603L34.2899 44.1121ZM36.4562 45.5031L36.4545 45.5057L38.1351 46.5994L38.1368 46.5968L36.4562 45.5031ZM36.8627 46.9516C38.2886 47.6391 39.854 47.9394 41.4051 47.8413L41.269 45.8474C40.0598 45.9239 38.8392 45.6898 37.7269 45.1535L36.8627 46.9516ZM41.4123 47.8408C42.2419 47.7824 43.0528 47.6072 43.8458 47.3358L43.1882 45.4456C42.5416 45.667 41.9011 45.8028 41.2619 45.8479L41.4123 47.8408ZM43.8626 47.3299C45.3197 46.802 46.629 45.9034 47.6523 44.7063L46.1265 43.4055C45.3281 44.3396 44.3069 45.0401 43.1714 45.4515L43.8626 47.3299ZM47.4345 43.2206L47.4319 43.2189L46.3417 44.8895L46.3443 44.8912L47.4345 43.2206ZM47.611 44.7473C48.5019 43.82 49.0691 42.4874 48.8453 41.0832L46.8681 41.3879C46.9749 42.0578 46.712 42.7893 46.1626 43.3611L47.611 44.7473ZM48.8357 41.0318C48.6448 40.1378 48.0681 39.5702 47.4177 39.2537C46.8057 38.9558 46.122 38.8713 45.5676 38.8607L45.539 40.8583C45.954 40.8661 46.3072 40.9319 46.5471 41.0487C46.7487 41.1468 46.839 41.258 46.8777 41.4393L48.8357 41.0318Z" fill="url(#paint3_linear_264_6615)" mask="url(#path-6-outside-2_264_6615)"/>
</g>
<g filter="url(#filter3_bd_264_6615)">
<path d="M40.6339 9.49676C39.8499 9.32305 39.0584 9.77505 38.8137 10.507C38.7315 10.9143 38.7969 11.3458 39.0301 11.6898C39.2634 12.0337 39.6285 12.2774 40.0564 12.3671L40.1129 12.3838C41.3873 12.7619 42.3026 13.8753 42.389 15.1588C42.4305 15.9953 43.1487 16.64 43.9911 16.6152C44.839 16.5724 45.4884 15.882 45.456 15.0678C45.2699 12.4792 43.4215 10.2649 40.8509 9.56112L40.6339 9.49676Z" fill="url(#paint4_linear_264_6615)"/>
<path d="M40.0776 12.2694L40.0776 12.2691L40.0855 12.2714L40.142 12.2882C41.4544 12.6775 42.3997 13.8248 42.489 15.1515L42.489 15.1515L42.4891 15.1532C42.5278 15.9339 43.1986 16.5382 43.9877 16.5155C44.7822 16.4748 45.3852 15.8295 45.3559 15.0739C45.1723 12.5292 43.3544 10.3502 40.8238 9.65737L40.8238 9.65739L40.8218 9.65679L40.6082 9.59344C39.8769 9.4332 39.1407 9.85429 38.9107 10.5322C38.8349 10.9151 38.898 11.3162 39.1133 11.6336C39.3316 11.9556 39.6742 12.1849 40.0776 12.2694Z" stroke="url(#paint5_linear_264_6615)" stroke-opacity="0.5" stroke-width="0.2"/>
</g>
<defs>
<filter id="filter0_f_264_6615" x="0.173828" y="0.742188" width="42.5449" height="46.3672" filterUnits="userSpaceOnUse" color-interpolation-filters="sRGB">
<feFlood flood-opacity="0" result="BackgroundImageFix"/>
<feBlend mode="normal" in="SourceGraphic" in2="BackgroundImageFix" result="shape"/>
<feGaussianBlur stdDeviation="7.5" result="effect1_foregroundBlur_264_6615"/>
</filter>
<filter id="filter1_b_264_6615" x="4.13672" y="-12.5117" width="69.208" height="68.168" filterUnits="userSpaceOnUse" color-interpolation-filters="sRGB">
<feFlood flood-opacity="0" result="BackgroundImageFix"/>
<feGaussianBlur in="BackgroundImageFix" stdDeviation="7.5"/>
<feComposite in2="SourceAlpha" operator="in" result="effect1_backgroundBlur_264_6615"/>
<feBlend mode="normal" in="SourceGraphic" in2="effect1_backgroundBlur_264_6615" result="shape"/>
</filter>
<filter id="filter2_b_264_6615" x="19.2188" y="23.8594" width="44.6758" height="39" filterUnits="userSpaceOnUse" color-interpolation-filters="sRGB">
<feFlood flood-opacity="0" result="BackgroundImageFix"/>
<feGaussianBlur in="BackgroundImageFix" stdDeviation="7.5"/>
<feComposite in2="SourceAlpha" operator="in" result="effect1_backgroundBlur_264_6615"/>
<feBlend mode="normal" in="SourceGraphic" in2="effect1_backgroundBlur_264_6615" result="shape"/>
</filter>
<filter id="filter3_bd_264_6615" x="23.7793" y="-5.53906" width="36.6777" height="37.1562" filterUnits="userSpaceOnUse" color-interpolation-filters="sRGB">
<feFlood flood-opacity="0" result="BackgroundImageFix"/>
<feGaussianBlur in="BackgroundImageFix" stdDeviation="7.5"/>
<feComposite in2="SourceAlpha" operator="in" result="effect1_backgroundBlur_264_6615"/>
<feColorMatrix in="SourceAlpha" type="matrix" values="0 0 0 0 0 0 0 0 0 0 0 0 0 0 0 0 0 0 127 0" result="hardAlpha"/>
<feOffset dx="5" dy="5"/>
<feGaussianBlur stdDeviation="5"/>
<feColorMatrix type="matrix" values="0 0 0 0 0.15375 0 0 0 0 0.522433 0 0 0 0 0.9 0 0 0 0.5 0"/>
<feBlend mode="normal" in2="effect1_backgroundBlur_264_6615" result="effect2_dropShadow_264_6615"/>
<feBlend mode="normal" in="SourceGraphic" in2="effect2_dropShadow_264_6615" result="shape"/>
</filter>
<linearGradient id="paint0_linear_264_6615" x1="37.4675" y1="15.1151" x2="4.9602" y2="30.9147" gradientUnits="userSpaceOnUse">
<stop stop-color="#39AFFD"/>
<stop offset="1" stop-color="#477FFF"/>
</linearGradient>
<linearGradient id="paint1_linear_264_6615" x1="22.1689" y1="38.2706" x2="16.1173" y2="44.1503" gradientUnits="userSpaceOnUse">
<stop stop-color="#39AFFD"/>
<stop offset="1" stop-color="#477FFF"/>
</linearGradient>
<linearGradient id="paint2_linear_264_6615" x1="21.6387" y1="10.413" x2="49.1143" y2="34.5015" gradientUnits="userSpaceOnUse">
<stop stop-color="white" stop-opacity="0.25"/>
<stop offset="1" stop-color="white" stop-opacity="0"/>
</linearGradient>
<linearGradient id="paint3_linear_264_6615" x1="36.998" y1="42.2022" x2="41.1426" y2="48.5521" gradientUnits="userSpaceOnUse">
<stop stop-color="white" stop-opacity="0.25"/>
<stop offset="1" stop-color="white" stop-opacity="0"/>
</linearGradient>
<linearGradient id="paint4_linear_264_6615" x1="45.223" y1="11.2967" x2="43.1778" y2="17.6078" gradientUnits="userSpaceOnUse">
<stop stop-color="white"/>
<stop offset="1" stop-color="white" stop-opacity="0.2"/>
</linearGradient>
<linearGradient id="paint5_linear_264_6615" x1="42.647" y1="15.6305" x2="44.0635" y2="10.7805" gradientUnits="userSpaceOnUse">
<stop stop-color="white"/>
<stop offset="1" stop-color="white" stop-opacity="0"/>
</linearGradient>
</defs>
</svg>
