<svg width="24" height="24" viewBox="0 0 24 24" fill="none" xmlns="http://www.w3.org/2000/svg">
<path d="M22 12.6201V14.6801C22 15.2401 21.54 15.7001 20.97 15.7001H19.04C17.96 15.7001 16.97 14.9101 16.88 13.8301C16.82 13.2001 17.06 12.6101 17.48 12.2001C17.85 11.8201 18.36 11.6001 18.92 11.6001H20.97C21.54 11.6001 22 12.0601 22 12.6201Z" fill="#FF4D08"/>
<path d="M15.38 13.9599C15.29 12.9099 15.67 11.8799 16.43 11.1299C17.07 10.4799 17.96 10.0999 18.92 10.0999H19.49C19.77 10.0999 20 9.8699 19.96 9.5899C19.69 7.6499 18.01 6.1499 16 6.1499H6C3.79 6.1499 2 7.9399 2 10.1499V17.1499C2 19.3599 3.79 21.1499 6 21.1499H16C18.02 21.1499 19.69 19.6499 19.96 17.7099C20 17.4299 19.77 17.1999 19.49 17.1999H19.04C17.14 17.1999 15.54 15.7799 15.38 13.9599ZM13 11.8999H7C6.59 11.8999 6.25 11.5699 6.25 11.1499C6.25 10.7299 6.59 10.3999 7 10.3999H13C13.41 10.3999 13.75 10.7399 13.75 11.1499C13.75 11.5599 13.41 11.8999 13 11.8999Z" fill="#FF4D08"/>
<path d="M14.21 3.9801C14.47 4.2501 14.24 4.6501 13.86 4.6501H6.03003C4.94003 4.6501 3.92003 4.9701 3.07003 5.5201C2.68003 5.7701 2.15003 5.5001 2.34003 5.0701C2.90003 3.7601 4.21003 2.8501 5.72003 2.8501H11.34C12.5 2.8501 13.53 3.2601 14.21 3.9801Z" fill="#FF4D08"/>
</svg>
