<svg xmlns="http://www.w3.org/2000/svg" xmlns:xlink="http://www.w3.org/1999/xlink" viewBox="0 0 800 800" width="800" height="800" preserveAspectRatio="xMidYMid meet" style="width: 100%; height: 100%; transform: translate3d(0px, 0px, 0px); content-visibility: visible;"><defs><clipPath id="__lottie_element_2"><rect width="800" height="800" x="0" y="0"></rect></clipPath><g id="__lottie_element_6"><g transform="matrix(1,0,0,1,0,12.750990867614746)" opacity="1" style="display: block;"><g opacity="1" transform="matrix(1,0,0,1,400,358.00201416015625)"><path fill="rgb(54,69,70)" fill-opacity="1" d=" M-172.59100341796875,-81.3270034790039 C-166.44900512695312,-115.97100067138672 -132.1439971923828,-142.29600524902344 -95.58499908447266,-142.29600524902344 C-95.58499908447266,-142.29600524902344 95.58499908447266,-142.29600524902344 95.58499908447266,-142.29600524902344 C132.14500427246094,-142.29600524902344 166.4499969482422,-115.97100067138672 172.59100341796875,-81.3270034790039 C172.59100341796875,-81.3270034790039 184.64199829101562,180.13699340820312 184.64199829101562,180.13699340820312 C184.64199829101562,180.13699340820312 -188.64199829101562,180.13699340820312 -188.64199829101562,180.13699340820312 C-188.64199829101562,180.13699340820312 -172.59100341796875,-81.3270034790039 -172.59100341796875,-81.3270034790039z"></path></g></g></g><g id="__lottie_element_9"><g transform="matrix(1,0,0,1,0,12.750990867614746)" opacity="1" style="display: block;"><g opacity="1" transform="matrix(1,0,0,1,400,358.00201416015625)"><path fill="rgb(54,69,70)" fill-opacity="1" d=" M-172.59100341796875,-81.3270034790039 C-166.44900512695312,-115.97100067138672 -132.1439971923828,-142.29600524902344 -95.58499908447266,-142.29600524902344 C-95.58499908447266,-142.29600524902344 95.58499908447266,-142.29600524902344 95.58499908447266,-142.29600524902344 C132.14500427246094,-142.29600524902344 166.4499969482422,-115.97100067138672 172.59100341796875,-81.3270034790039 C172.59100341796875,-81.3270034790039 184.64199829101562,180.13699340820312 184.64199829101562,180.13699340820312 C184.64199829101562,180.13699340820312 -188.64199829101562,180.13699340820312 -188.64199829101562,180.13699340820312 C-188.64199829101562,180.13699340820312 -172.59100341796875,-81.3270034790039 -172.59100341796875,-81.3270034790039z"></path></g></g></g><g id="__lottie_element_12"><g transform="matrix(1,0,0,1,0,12.750990867614746)" opacity="1" style="display: block;"><g opacity="1" transform="matrix(1,0,0,1,400,358.00201416015625)"><path fill="rgb(54,69,70)" fill-opacity="1" d=" M-172.59100341796875,-81.3270034790039 C-166.44900512695312,-115.97100067138672 -132.1439971923828,-142.29600524902344 -95.58499908447266,-142.29600524902344 C-95.58499908447266,-142.29600524902344 95.58499908447266,-142.29600524902344 95.58499908447266,-142.29600524902344 C132.14500427246094,-142.29600524902344 166.4499969482422,-115.97100067138672 172.59100341796875,-81.3270034790039 C172.59100341796875,-81.3270034790039 184.64199829101562,180.13699340820312 184.64199829101562,180.13699340820312 C184.64199829101562,180.13699340820312 -188.64199829101562,180.13699340820312 -188.64199829101562,180.13699340820312 C-188.64199829101562,180.13699340820312 -172.59100341796875,-81.3270034790039 -172.59100341796875,-81.3270034790039z"></path></g></g></g><g id="__lottie_element_15"><g transform="matrix(1,0,0,1,0,12.750990867614746)" opacity="1" style="display: block;"><g opacity="1" transform="matrix(1,0,0,1,400,358.00201416015625)"><path fill="rgb(54,69,70)" fill-opacity="1" d=" M-172.59100341796875,-81.3270034790039 C-166.44900512695312,-115.97100067138672 -132.1439971923828,-142.29600524902344 -95.58499908447266,-142.29600524902344 C-95.58499908447266,-142.29600524902344 95.58499908447266,-142.29600524902344 95.58499908447266,-142.29600524902344 C132.14500427246094,-142.29600524902344 166.4499969482422,-115.97100067138672 172.59100341796875,-81.3270034790039 C172.59100341796875,-81.3270034790039 184.64199829101562,180.13699340820312 184.64199829101562,180.13699340820312 C184.64199829101562,180.13699340820312 -188.64199829101562,180.13699340820312 -188.64199829101562,180.13699340820312 C-188.64199829101562,180.13699340820312 -172.59100341796875,-81.3270034790039 -172.59100341796875,-81.3270034790039z"></path></g></g></g><filter id="__lottie_element_24" filterUnits="objectBoundingBox" x="0%" y="0%" width="100%" height="100%"><feComponentTransfer in="SourceGraphic"><feFuncA type="table" tableValues="1.0 0.0"></feFuncA></feComponentTransfer></filter><mask id="__lottie_element_6_2" mask-type="alpha"><g filter="url(#__lottie_element_24)"><rect width="800" height="800" x="0" y="0" fill="#ffffff" opacity="0"></rect><use xlink:href="#__lottie_element_6"></use></g></mask><filter id="__lottie_element_28" filterUnits="objectBoundingBox" x="0%" y="0%" width="100%" height="100%"><feComponentTransfer in="SourceGraphic"><feFuncA type="table" tableValues="1.0 0.0"></feFuncA></feComponentTransfer></filter><mask id="__lottie_element_9_2" mask-type="alpha"><g filter="url(#__lottie_element_28)"><rect width="800" height="800" x="0" y="0" fill="#ffffff" opacity="0"></rect><use xlink:href="#__lottie_element_9"></use></g></mask><filter id="__lottie_element_32" filterUnits="objectBoundingBox" x="0%" y="0%" width="100%" height="100%"><feComponentTransfer in="SourceGraphic"><feFuncA type="table" tableValues="1.0 0.0"></feFuncA></feComponentTransfer></filter><mask id="__lottie_element_12_2" mask-type="alpha"><g filter="url(#__lottie_element_32)"><rect width="800" height="800" x="0" y="0" fill="#ffffff" opacity="0"></rect><use xlink:href="#__lottie_element_12"></use></g></mask><filter id="__lottie_element_36" filterUnits="objectBoundingBox" x="0%" y="0%" width="100%" height="100%"><feComponentTransfer in="SourceGraphic"><feFuncA type="table" tableValues="1.0 0.0"></feFuncA></feComponentTransfer></filter><mask id="__lottie_element_15_2" mask-type="alpha"><g filter="url(#__lottie_element_36)"><rect width="800" height="800" x="0" y="0" fill="#ffffff" opacity="0"></rect><use xlink:href="#__lottie_element_15"></use></g></mask></defs><g clip-path="url(#__lottie_element_2)"><g mask="url(#__lottie_element_6_2)" style="display: none;"><g transform="matrix(0.4308050572872162,0,0,1,400,381.3833312988281)" opacity="1"><g opacity="1" transform="matrix(1,0,0,1,0,0)"><path fill="rgb(49,115,120)" fill-opacity="1" d=" M114.2959976196289,139.718994140625 C114.2959976196289,139.718994140625 -114.2959976196289,139.718994140625 -114.2959976196289,139.718994140625 C-114.2959976196289,139.718994140625 -53.49599838256836,-139.93899536132812 -53.49599838256836,-139.93899536132812 C-53.49599838256836,-139.93899536132812 75.71900177001953,-139.718994140625 75.71900177001953,-139.718994140625 C75.71900177001953,-139.718994140625 114.2959976196289,139.718994140625 114.2959976196289,139.718994140625z"></path></g></g></g><g mask="url(#__lottie_element_9_2)" style="display: block;"><g transform="matrix(0.4300000071525574,0,0,1,400,426.7313232421875)" opacity="1"><g opacity="1" transform="matrix(1,0,0,1,0,0)"><path fill="rgb(49,115,120)" fill-opacity="1" d=" M114.2959976196289,139.718994140625 C114.2959976196289,139.718994140625 -114.2959976196289,139.718994140625 -114.2959976196289,139.718994140625 C-114.2959976196289,139.718994140625 -53.49599838256836,-139.93899536132812 -53.49599838256836,-139.93899536132812 C-53.49599838256836,-139.93899536132812 75.71900177001953,-139.718994140625 75.71900177001953,-139.718994140625 C75.71900177001953,-139.718994140625 114.2959976196289,139.718994140625 114.2959976196289,139.718994140625z"></path></g></g></g><g mask="url(#__lottie_element_12_2)" style="display: none;"><g transform="matrix(0.4300000071525574,0,0,1,400,381.2177734375)" opacity="1"><g opacity="1" transform="matrix(1,0,0,1,0,0)"><path fill="rgb(49,115,120)" fill-opacity="1" d=" M114.2959976196289,139.718994140625 C114.2959976196289,139.718994140625 -114.2959976196289,139.718994140625 -114.2959976196289,139.718994140625 C-114.2959976196289,139.718994140625 -53.49599838256836,-139.93899536132812 -53.49599838256836,-139.93899536132812 C-53.49599838256836,-139.93899536132812 75.71900177001953,-139.718994140625 75.71900177001953,-139.718994140625 C75.71900177001953,-139.718994140625 114.2959976196289,139.718994140625 114.2959976196289,139.718994140625z"></path></g></g></g><g mask="url(#__lottie_element_15_2)" style="display: none;"><g transform="matrix(0.4300000071525574,0,0,1,400,381.2589416503906)" opacity="1"><g opacity="1" transform="matrix(1,0,0,1,0,0)"><path fill="rgb(49,115,120)" fill-opacity="1" d=" M114.2959976196289,139.718994140625 C114.2959976196289,139.718994140625 -114.2959976196289,139.718994140625 -114.2959976196289,139.718994140625 C-114.2959976196289,139.718994140625 -53.49599838256836,-139.93899536132812 -53.49599838256836,-139.93899536132812 C-53.49599838256836,-139.93899536132812 75.71900177001953,-139.718994140625 75.71900177001953,-139.718994140625 C75.71900177001953,-139.718994140625 114.2959976196289,139.718994140625 114.2959976196289,139.718994140625z"></path></g></g></g><g transform="matrix(1,0,0,1,0,12.3179931640625)" opacity="1" style="display: block;"><g opacity="1" transform="matrix(1,0,0,1,225.17300415039062,521.8740234375)"><g opacity="1" transform="matrix(1,0,0,1,0,0)"><path fill="rgb(54,69,70)" fill-opacity="1" d=" M0.8240000009536743,65.05400085449219 C-16.562000274658203,65.05400085449219 -30.83799934387207,58.68600082397461 -31.215999603271484,42.624000549316406 C-31.215999603271484,42.624000549316406 -32.891998291015625,-34.935001373291016 -32.891998291015625,-34.935001373291016 C-33.275001525878906,-51.2130012512207 30.83300018310547,-52.4900016784668 31.215999603271484,-36.21200180053711 C31.215999603271484,-36.21200180053711 32.891998291015625,41.34700012207031 32.891998291015625,41.34700012207031 C33.275001525878906,57.625 19.235000610351562,64.69499969482422 1.531999945640564,65.0469970703125 C1.2970000505447388,65.052001953125 1.0579999685287476,65.05400085449219 0.8240000009536743,65.05400085449219z"></path></g></g><g opacity="1" transform="matrix(1,0,0,1,574.8270263671875,521.8740234375)"><g opacity="1" transform="matrix(1,0,0,1,0,0)"><path fill="rgb(54,69,70)" fill-opacity="1" d=" M0.8240000009536743,65.05400085449219 C-16.562000274658203,65.05400085449219 -30.83799934387207,58.68600082397461 -31.215999603271484,42.624000549316406 C-31.215999603271484,42.624000549316406 -32.891998291015625,-34.935001373291016 -32.891998291015625,-34.935001373291016 C-33.275001525878906,-51.2130012512207 30.83300018310547,-52.4900016784668 31.215999603271484,-36.21200180053711 C31.215999603271484,-36.21200180053711 32.891998291015625,41.34700012207031 32.891998291015625,41.34700012207031 C33.275001525878906,57.625 19.235000610351562,64.69499969482422 1.531999945640564,65.0469970703125 C1.2970000505447388,65.052001953125 1.0579999685287476,65.05400085449219 0.8240000009536743,65.05400085449219z"></path></g></g></g><g transform="matrix(1,0,0,1,0,12.750990867614746)" opacity="1" style="display: block;"><g opacity="1" transform="matrix(1,0,0,1,400,358.00201416015625)"><path fill="rgb(54,69,70)" fill-opacity="1" d=" M222.41000366210938,2.5460000038146973 C222.41000366210938,2.5460000038146973 205.66600036621094,-96.91200256347656 205.66600036621094,-96.91200256347656 C198.34800720214844,-138.19500732421875 157.468994140625,-169.5659942626953 113.90299987792969,-169.5659942626953 C113.90299987792969,-169.5659942626953 -113.90299987792969,-169.5659942626953 -113.90299987792969,-169.5659942626953 C-157.468994140625,-169.5659942626953 -198.3470001220703,-138.19500732421875 -205.66600036621094,-96.91200256347656 C-205.66600036621094,-96.91200256347656 -222.41000366210938,2.5460000038146973 -222.41000366210938,2.5460000038146973 C-255.0540008544922,20.38800048828125 -276.3089904785156,55.0359992980957 -276.3089904785156,94.85900115966797 C-276.3089904785156,136.11900329589844 -242.86199951171875,169.5659942626953 -201.6020050048828,169.5659942626953 C-201.6020050048828,169.5659942626953 201.60299682617188,169.5659942626953 201.60299682617188,169.5659942626953 C242.86199951171875,169.5659942626953 276.3089904785156,136.11900329589844 276.3089904785156,94.85900115966797 C276.3089904785156,55.0359992980957 255.0540008544922,20.38800048828125 222.41000366210938,2.5460000038146973z M-172.59100341796875,-81.3270034790039 C-166.44900512695312,-115.97100067138672 -132.1439971923828,-142.29600524902344 -95.58499908447266,-142.29600524902344 C-95.58499908447266,-142.29600524902344 95.58499908447266,-142.29600524902344 95.58499908447266,-142.29600524902344 C132.14500427246094,-142.29600524902344 166.4499969482422,-115.97100067138672 172.59100341796875,-81.3270034790039 C172.59100341796875,-81.3270034790039 186.64199829101562,2.13700008392334 186.64199829101562,2.13700008392334 C186.64199829101562,2.13700008392334 -186.64199829101562,2.13700008392334 -186.64199829101562,2.13700008392334 C-186.64199829101562,2.13700008392334 -172.59100341796875,-81.3270034790039 -172.59100341796875,-81.3270034790039z M-117.28900146484375,80.25 C-117.28900146484375,90.50499725341797 -125.60199737548828,98.81800079345703 -135.85699462890625,98.81800079345703 C-135.85699462890625,98.81800079345703 -207.3419952392578,98.81800079345703 -207.3419952392578,98.81800079345703 C-217.5970001220703,98.81800079345703 -225.91000366210938,90.50499725341797 -225.91000366210938,80.25 C-225.91000366210938,80.25 -225.91000366210938,64.0459976196289 -225.91000366210938,64.0459976196289 C-225.91000366210938,53.79100036621094 -217.5970001220703,45.47700119018555 -207.3419952392578,45.47700119018555 C-207.3419952392578,45.47700119018555 -135.85699462890625,45.47700119018555 -135.85699462890625,45.47700119018555 C-125.60199737548828,45.47700119018555 -117.28900146484375,53.79100036621094 -117.28900146484375,64.0459976196289 C-117.28900146484375,64.0459976196289 -117.28900146484375,80.25 -117.28900146484375,80.25z M225.91000366210938,80.25 C225.91000366210938,90.50499725341797 217.5970001220703,98.81800079345703 207.3419952392578,98.81800079345703 C207.3419952392578,98.81800079345703 135.85699462890625,98.81800079345703 135.85699462890625,98.81800079345703 C125.60199737548828,98.81800079345703 117.28900146484375,90.50499725341797 117.28900146484375,80.25 C117.28900146484375,80.25 117.28900146484375,64.0459976196289 117.28900146484375,64.0459976196289 C117.28900146484375,53.79100036621094 125.60199737548828,45.47700119018555 135.85699462890625,45.47700119018555 C135.85699462890625,45.47700119018555 207.3419952392578,45.47700119018555 207.3419952392578,45.47700119018555 C217.5970001220703,45.47700119018555 225.91000366210938,53.79100036621094 225.91000366210938,64.0459976196289 C225.91000366210938,64.0459976196289 225.91000366210938,80.25 225.91000366210938,80.25z"></path></g></g></g></svg>